<?xml version="1.0"?>
<svg xmlns="http://www.w3.org/2000/svg" viewBox="0 0 32 32">
    <path style="line-height:normal;text-indent:0;text-align:start;text-decoration-line:none;text-decoration-style:solid;text-decoration-color:#000;text-transform:none;block-progression:tb;isolation:auto;mix-blend-mode:normal" d="M 19 3 C 13.488997 3 9 7.4889971 9 13 C 9 15.396508 9.8510142 17.597385 11.263672 19.322266 L 3.2929688 27.292969 L 4.7070312 28.707031 L 12.677734 20.736328 C 14.402615 22.148986 16.603492 23 19 23 C 24.511003 23 29 18.511003 29 13 C 29 7.4889971 24.511003 3 19 3 z M 19 5 C 23.430123 5 27 8.5698774 27 13 C 27 17.430123 23.430123 21 19 21 C 14.569877 21 11 17.430123 11 13 C 11 8.5698774 14.569877 5 19 5 z M 16.076172 9.2988281 C 15.792172 9.5418281 15.475047 9.7667031 15.123047 9.9707031 C 14.771047 10.173703 14.397 10.341656 14 10.472656 L 14 11.923828 C 14.135 11.905828 14.273109 11.875984 14.412109 11.833984 C 14.550109 11.792984 14.6825 11.741641 14.8125 11.681641 C 14.9415 11.621641 15.063734 11.554469 15.177734 11.480469 C 15.291734 11.406469 15.391562 11.325188 15.476562 11.242188 L 15.476562 16.699219 L 17 16.699219 L 17 9.3007812 L 17 9.2988281 L 16.076172 9.2988281 z M 23.076172 9.2988281 C 22.792172 9.5418281 22.475047 9.7667031 22.123047 9.9707031 C 21.771047 10.173703 21.397 10.341656 21 10.472656 L 21 11.923828 C 21.135 11.905828 21.273109 11.875984 21.412109 11.833984 C 21.550109 11.792984 21.6825 11.741641 21.8125 11.681641 C 21.9415 11.621641 22.063734 11.554469 22.177734 11.480469 C 22.291734 11.406469 22.391562 11.325188 22.476562 11.242188 L 22.476562 16.699219 L 24 16.699219 L 24 9.3007812 L 24 9.2988281 L 23.076172 9.2988281 z M 19.007812 11 C 18.720813 11 18.479109 11.093297 18.287109 11.279297 C 18.095109 11.465297 18 11.704094 18 11.996094 C 18 12.280094 18.092297 12.518937 18.279297 12.710938 C 18.466297 12.903937 18.700469 13 18.980469 13 C 19.282469 13 19.52875 12.906703 19.71875 12.720703 C 19.90675 12.534703 20 12.292094 20 11.996094 C 20 11.708094 19.908656 11.471203 19.722656 11.283203 C 19.536656 11.094203 19.299813 11 19.007812 11 z M 19.007812 13.998047 C 18.720813 13.998047 18.479109 14.093297 18.287109 14.279297 C 18.095109 14.464297 18 14.701187 18 14.992188 C 18 15.275188 18.092297 15.514984 18.279297 15.708984 C 18.466297 15.902984 18.700469 16 18.980469 16 C 19.282469 16 19.52875 15.90575 19.71875 15.71875 C 19.90675 15.53075 20 15.287187 20 14.992188 C 20 14.706188 19.908656 14.47025 19.722656 14.28125 C 19.536656 14.09425 19.299813 13.998047 19.007812 13.998047 z" font-weight="400" font-family="sans-serif" white-space="normal" overflow="visible"/>
</svg>
